<svg version="1.1" xmlns="http://www.w3.org/2000/svg" xmlns:xlink="http://www.w3.org/1999/xlink" width="1229" height="476"><defs/><g><g><rect fill="#C0C0C0" stroke="none" x="63" y="511" width="230.98095703125" height="88" transform="matrix(1 0 0 1 -30 -278)" fill-opacity="0.2"/></g><g><rect fill="#ffffff" stroke="none" x="56" y="504" width="230.98095703125" height="88" transform="matrix(1 0 0 1 -30 -278)"/></g><g><path fill="none" stroke="#000000" paint-order="fill stroke markers" d=" M 26 226 L 256.98095703125 226 L 256.98095703125 314 L 26 314 L 26 226 Z Z" stroke-miterlimit="10" stroke-dasharray=""/></g><g><path fill="none" stroke="#000000" paint-order="fill stroke markers" d=" M 26 251 L 257.98095703125 251" stroke-miterlimit="10" stroke-dasharray=""/></g><g><path fill="none" stroke="#000000" paint-order="fill stroke markers" d=" M 26 261 L 257.98095703125 261" stroke-miterlimit="10" stroke-dasharray=""/></g><g><g><path fill="none" stroke="none"/><text fill="#000000" stroke="none" font-family="Arial" font-size="13px" font-style="normal" font-weight="bold" text-decoration="undefined" x="171.990478515625" y="517.5" text-anchor="middle" dominant-baseline="central" transform="matrix(1 0 0 1 -30 -278)">Visitor</text></g></g><g><g><path fill="none" stroke="none"/><text fill="#000000" stroke="none" font-family="Arial" font-size="13px" font-style="italic" font-weight="normal" text-decoration="undefined" x="61" y="550.5" text-anchor="start" dominant-baseline="central" transform="matrix(1 0 0 1 -30 -278)">+visit(tree: CommonTree)</text></g></g><g><g><path fill="none" stroke="none"/><text fill="#000000" stroke="none" font-family="Arial" font-size="13px" font-style="normal" font-weight="normal" text-decoration="undefined" x="61" y="565.5" text-anchor="start" dominant-baseline="central" transform="matrix(1 0 0 1 -30 -278)">«abstract»+entry(node: CommonTree)</text></g></g><g><g><path fill="none" stroke="none"/><text fill="#000000" stroke="none" font-family="Arial" font-size="13px" font-style="normal" font-weight="normal" text-decoration="undefined" x="61" y="580.5" text-anchor="start" dominant-baseline="central" transform="matrix(1 0 0 1 -30 -278)">«abstract»+exit(node: CommonTree)</text></g></g><g><rect fill="#C0C0C0" stroke="none" x="607" y="511" width="312.630859375" height="86" transform="matrix(1 0 0 1 -30 -278)" fill-opacity="0.2"/></g><g><rect fill="#ffffff" stroke="none" x="600" y="504" width="312.630859375" height="86" transform="matrix(1 0 0 1 -30 -278)"/></g><g><path fill="none" stroke="#000000" paint-order="fill stroke markers" d=" M 570 226 L 882.630859375 226 L 882.630859375 312 L 570 312 L 570 226 Z Z" stroke-miterlimit="10" stroke-dasharray=""/></g><g><path fill="none" stroke="#000000" paint-order="fill stroke markers" d=" M 570 251 L 883.630859375 251" stroke-miterlimit="10" stroke-dasharray=""/></g><g><path fill="none" stroke="#000000" paint-order="fill stroke markers" d=" M 570 274 L 883.630859375 274" stroke-miterlimit="10" stroke-dasharray=""/></g><g><g><path fill="none" stroke="none"/><text fill="#000000" stroke="none" font-family="Arial" font-size="13px" font-style="normal" font-weight="bold" text-decoration="undefined" x="756.8154296875" y="517.5" text-anchor="middle" dominant-baseline="central" transform="matrix(1 0 0 1 -30 -278)">App</text></g></g><g><g><path fill="none" stroke="none"/><text fill="#000000" stroke="none" font-family="Arial" font-size="13px" font-style="normal" font-weight="normal" text-decoration="undefined" x="605" y="540.5" text-anchor="start" dominant-baseline="central" transform="matrix(1 0 0 1 -30 -278)">+inputFiles: ArrayList&lt;String&gt;</text><path fill="none" stroke="#000000" paint-order="fill stroke markers" d=" M 575 269 L 745.88525390625 269" stroke-miterlimit="10" stroke-dasharray=""/></g></g><g><g><path fill="none" stroke="none"/><text fill="#000000" stroke="none" font-family="Arial" font-size="13px" font-style="normal" font-weight="normal" text-decoration="undefined" x="605" y="563.5" text-anchor="start" dominant-baseline="central" transform="matrix(1 0 0 1 -30 -278)">+getFileNameAndLineNumber(node : CommonTree)</text><path fill="none" stroke="#000000" paint-order="fill stroke markers" d=" M 575 292 L 877.630859375 292" stroke-miterlimit="10" stroke-dasharray=""/></g></g><g><g><path fill="none" stroke="none"/><text fill="#000000" stroke="none" font-family="Arial" font-size="13px" font-style="normal" font-weight="normal" text-decoration="undefined" x="605" y="578.5" text-anchor="start" dominant-baseline="central" transform="matrix(1 0 0 1 -30 -278)">+main(args: String)</text><path fill="none" stroke="#000000" paint-order="fill stroke markers" d=" M 575 307 L 685.89990234375 307" stroke-miterlimit="10" stroke-dasharray=""/></g></g><g><rect fill="#C0C0C0" stroke="none" x="351" y="471" width="139.2890625" height="45" transform="matrix(1 0 0 1 -30 -278)" fill-opacity="0.2"/></g><g><rect fill="#ffffff" stroke="none" x="344" y="464" width="139.2890625" height="45" transform="matrix(1 0 0 1 -30 -278)"/></g><g><path fill="none" stroke="#000000" paint-order="fill stroke markers" d=" M 314 186 L 453.2890625 186 L 453.2890625 231 L 314 231 L 314 186 Z Z" stroke-miterlimit="10" stroke-dasharray=""/></g><g><path fill="none" stroke="#000000" paint-order="fill stroke markers" d=" M 314 211 L 454.2890625 211" stroke-miterlimit="10" stroke-dasharray=""/></g><g><path fill="none" stroke="#000000" paint-order="fill stroke markers" d=" M 314 221 L 454.2890625 221" stroke-miterlimit="10" stroke-dasharray=""/></g><g><g><path fill="none" stroke="none"/><text fill="#000000" stroke="none" font-family="Arial" font-size="13px" font-style="normal" font-weight="bold" text-decoration="undefined" x="414.14453125" y="477.5" text-anchor="middle" dominant-baseline="central" transform="matrix(1 0 0 1 -30 -278)">VisitorSymbolsTable</text></g></g><g><path fill="none" stroke="#000000" paint-order="fill stroke markers" d=" M 313 226 L 258 240" stroke-miterlimit="10" stroke-dasharray=""/></g><g><path fill="#FFFFFF" stroke="none" paint-order="stroke fill markers" d=" M 275.6204373442946 226.8272938317221 L 258 240 L 279.7740405917906 243.14502087545623"/></g><g><path fill="none" stroke="#000000" paint-order="fill stroke markers" d=" M 275.6204373442946 226.8272938317221 L 258 240 L 279.7740405917906 243.14502087545623 L 275.6204373442946 226.8272938317221" stroke-miterlimit="10" stroke-dasharray=""/></g><g><rect fill="#C0C0C0" stroke="none" x="343" y="623" width="144.15771484375" height="45" transform="matrix(1 0 0 1 -30 -278)" fill-opacity="0.2"/></g><g><rect fill="#ffffff" stroke="none" x="336" y="616" width="144.15771484375" height="45" transform="matrix(1 0 0 1 -30 -278)"/></g><g><path fill="none" stroke="#000000" paint-order="fill stroke markers" d=" M 306 338 L 450.15771484375 338 L 450.15771484375 383 L 306 383 L 306 338 Z Z" stroke-miterlimit="10" stroke-dasharray=""/></g><g><path fill="none" stroke="#000000" paint-order="fill stroke markers" d=" M 306 363 L 451.15771484375 363" stroke-miterlimit="10" stroke-dasharray=""/></g><g><path fill="none" stroke="#000000" paint-order="fill stroke markers" d=" M 306 373 L 451.15771484375 373" stroke-miterlimit="10" stroke-dasharray=""/></g><g><g><path fill="none" stroke="none"/><text fill="#000000" stroke="none" font-family="Arial" font-size="13px" font-style="normal" font-weight="bold" text-decoration="undefined" x="408.578857421875" y="629.5" text-anchor="middle" dominant-baseline="central" transform="matrix(1 0 0 1 -30 -278)">VisitorThreeAdresses</text></g></g><g><rect fill="#C0C0C0" stroke="none" x="351" y="543" width="138.1337890625" height="45" transform="matrix(1 0 0 1 -30 -278)" fill-opacity="0.2"/></g><g><rect fill="#ffffff" stroke="none" x="344" y="536" width="138.1337890625" height="45" transform="matrix(1 0 0 1 -30 -278)"/></g><g><path fill="none" stroke="#000000" paint-order="fill stroke markers" d=" M 314 258 L 452.1337890625 258 L 452.1337890625 303 L 314 303 L 314 258 Z Z" stroke-miterlimit="10" stroke-dasharray=""/></g><g><path fill="none" stroke="#000000" paint-order="fill stroke markers" d=" M 314 283 L 453.1337890625 283" stroke-miterlimit="10" stroke-dasharray=""/></g><g><path fill="none" stroke="#000000" paint-order="fill stroke markers" d=" M 314 293 L 453.1337890625 293" stroke-miterlimit="10" stroke-dasharray=""/></g><g><g><path fill="none" stroke="none"/><text fill="#000000" stroke="none" font-family="Arial" font-size="13px" font-style="normal" font-weight="bold" text-decoration="undefined" x="413.56689453125" y="549.5" text-anchor="middle" dominant-baseline="central" transform="matrix(1 0 0 1 -30 -278)">VisitorTypesChecker</text></g></g><g><path fill="none" stroke="#000000" paint-order="fill stroke markers" d=" M 317 337 L 258 314" stroke-miterlimit="10" stroke-dasharray=""/></g><g><path fill="#FFFFFF" stroke="none" paint-order="stroke fill markers" d=" M 279.9951537360755 313.5382510136408 L 258 314 L 273.8794281994803 329.2264165205589"/></g><g><path fill="none" stroke="#000000" paint-order="fill stroke markers" d=" M 279.9951537360755 313.5382510136408 L 258 314 L 273.8794281994803 329.2264165205589 L 279.9951537360755 313.5382510136408" stroke-miterlimit="10" stroke-dasharray=""/></g><g><path fill="none" stroke="#000000" paint-order="fill stroke markers" d=" M 313 277 L 258 275" stroke-miterlimit="10" stroke-dasharray=""/></g><g><path fill="#FFFFFF" stroke="none" paint-order="stroke fill markers" d=" M 278.6178693153596 267.3251407247591 L 258 275 L 278.00598024468417 284.1520901683334"/></g><g><path fill="none" stroke="#000000" paint-order="fill stroke markers" d=" M 278.6178693153596 267.3251407247591 L 258 275 L 278.00598024468417 284.1520901683334 L 278.6178693153596 267.3251407247591" stroke-miterlimit="10" stroke-dasharray=""/></g><g><rect fill="#C0C0C0" stroke="none" x="47" y="295" width="361.6" height="15" transform="matrix(1 0 0 1 -30 -278)" fill-opacity="0.2"/></g><g><rect fill="#C0C0C0" stroke="none" x="47" y="309" width="904" height="442" transform="matrix(1 0 0 1 -30 -278)" fill-opacity="0.2"/></g><g><rect fill="#FFFFFF00" stroke="none" x="40" y="303" width="904" height="441" transform="matrix(1 0 0 1 -30 -278)"/></g><g><path fill="none" stroke="#000000" paint-order="fill stroke markers" d=" M 10 25 L 914 25 L 914 466 L 10 466 L 10 25 Z Z" stroke-miterlimit="10" stroke-dasharray=""/></g><g><rect fill="#FFFFFF00" stroke="none" x="40" y="288" width="361.6" height="15" transform="matrix(1 0 0 1 -30 -278)"/></g><g><path fill="none" stroke="#000000" paint-order="fill stroke markers" d=" M 10 10 L 371.6 10 L 371.6 25 L 10 25 L 10 10 Z Z" stroke-miterlimit="10" stroke-dasharray=""/></g><g><rect fill="#FFFFFF00" stroke="none" x="40" y="302" width="904" height="442" transform="matrix(1 0 0 1 -30 -278)"/></g><g><path fill="none" stroke="#000000" paint-order="fill stroke markers" d=" M 10 24 L 914 24 L 914 466 L 10 466 L 10 24 Z Z" stroke-miterlimit="10" stroke-dasharray=""/></g><g><g><path fill="none" stroke="none"/><text fill="#000000" stroke="none" font-family="Arial" font-size="13px" font-style="normal" font-weight="bold" text-decoration="undefined" x="492.5" y="316.5" text-anchor="middle" dominant-baseline="central" transform="matrix(1 0 0 1 -30 -278)">Compilateur</text></g></g><g><rect fill="#C0C0C0" stroke="none" x="703" y="663" width="117.2880859375" height="58" transform="matrix(1 0 0 1 -30 -278)" fill-opacity="0.2"/></g><g><rect fill="#ffffff" stroke="none" x="696" y="656" width="117.2880859375" height="58" transform="matrix(1 0 0 1 -30 -278)"/></g><g><path fill="none" stroke="#000000" paint-order="fill stroke markers" d=" M 666 378 L 783.2880859375 378 L 783.2880859375 436 L 666 436 L 666 378 Z Z" stroke-miterlimit="10" stroke-dasharray=""/></g><g><path fill="none" stroke="#000000" paint-order="fill stroke markers" d=" M 666 403 L 784.2880859375 403" stroke-miterlimit="10" stroke-dasharray=""/></g><g><path fill="none" stroke="#000000" paint-order="fill stroke markers" d=" M 666 413 L 784.2880859375 413" stroke-miterlimit="10" stroke-dasharray=""/></g><g><g><path fill="none" stroke="none"/><text fill="#000000" stroke="none" font-family="Arial" font-size="13px" font-style="normal" font-weight="bold" text-decoration="undefined" x="755.14404296875" y="669.5" text-anchor="middle" dominant-baseline="central" transform="matrix(1 0 0 1 -30 -278)">Code3AtoC</text></g></g><g><g><path fill="none" stroke="none"/><text fill="#000000" stroke="none" font-family="Arial" font-size="13px" font-style="normal" font-weight="normal" text-decoration="undefined" x="701" y="702.5" text-anchor="start" dominant-baseline="central" transform="matrix(1 0 0 1 -30 -278)">+startConversion()</text></g></g><g><path fill="none" stroke="#000000" paint-order="fill stroke markers" d=" M 451 341 L 569 310" stroke-miterlimit="10" stroke-dasharray=""/></g><g><path fill="#000000" stroke="none" paint-order="stroke fill markers" d=" M 560.2404534132374 316.6535962903032 L 569 310 L 558.1012621522297 308.5108682645317 L 547.7220262569322 315.5899761528399"/></g><g><path fill="none" stroke="#000000" paint-order="fill stroke markers" d=" M 560.2404534132374 316.6535962903032 L 569 310 L 558.1012621522297 308.5108682645317 L 547.7220262569322 315.5899761528399 L 560.2404534132374 316.6535962903032" stroke-miterlimit="10" stroke-dasharray=""/></g><g><rect fill="#ffffff" stroke="none" x="502" y="619" width="7.22998046875" height="13" transform="matrix(1 0 0 1 -30 -278)"/></g><g><g><path fill="none" stroke="none"/><text fill="#000000" stroke="none" font-family="Arial" font-size="13px" font-style="normal" font-weight="normal" text-decoration="undefined" x="505.614990234375" y="625.5" text-anchor="middle" dominant-baseline="central" transform="matrix(1 0 0 1 -30 -278)">1</text></g></g><g><path fill="none" stroke="#000000" paint-order="fill stroke markers" d=" M 453 278 L 569 274" stroke-miterlimit="10" stroke-dasharray=""/></g><g><path fill="#000000" stroke="none" paint-order="stroke fill markers" d=" M 558.9884313398708 278.5572462039613 L 569 274 L 558.6982922157503 270.1432116044656 L 547.0130680142211 274.7581700684751"/></g><g><path fill="none" stroke="#000000" paint-order="fill stroke markers" d=" M 558.9884313398708 278.5572462039613 L 569 274 L 558.6982922157503 270.1432116044656 L 547.0130680142211 274.7581700684751 L 558.9884313398708 278.5572462039613" stroke-miterlimit="10" stroke-dasharray=""/></g><g><rect fill="#ffffff" stroke="none" x="502" y="561" width="7.22998046875" height="13" transform="matrix(1 0 0 1 -30 -278)"/></g><g><g><path fill="none" stroke="none"/><text fill="#000000" stroke="none" font-family="Arial" font-size="13px" font-style="normal" font-weight="normal" text-decoration="undefined" x="505.614990234375" y="567.5" text-anchor="middle" dominant-baseline="central" transform="matrix(1 0 0 1 -30 -278)">1</text></g></g><g><path fill="none" stroke="#000000" paint-order="fill stroke markers" d=" M 454 221 L 569 241" stroke-miterlimit="10" stroke-dasharray=""/></g><g><path fill="#000000" stroke="none" paint-order="stroke fill markers" d=" M 558.2663495524063 243.40598172662885 L 569 241 L 559.7088769873103 235.11144897593067 L 547.3253413939672 237.23049415547257"/></g><g><path fill="none" stroke="#000000" paint-order="fill stroke markers" d=" M 558.2663495524063 243.40598172662885 L 569 241 L 559.7088769873103 235.11144897593067 L 547.3253413939672 237.23049415547257 L 558.2663495524063 243.40598172662885" stroke-miterlimit="10" stroke-dasharray=""/></g><g><rect fill="#ffffff" stroke="none" x="503" y="480" width="7.22998046875" height="13" transform="matrix(1 0 0 1 -30 -278)"/></g><g><g><path fill="none" stroke="none"/><text fill="#000000" stroke="none" font-family="Arial" font-size="13px" font-style="normal" font-weight="normal" text-decoration="undefined" x="506.614990234375" y="486.5" text-anchor="middle" dominant-baseline="central" transform="matrix(1 0 0 1 -30 -278)">1</text></g></g><g><rect fill="#C0C0C0" stroke="none" x="1055" y="343" width="80" height="15" transform="matrix(1 0 0 1 -30 -278)" fill-opacity="0.2"/></g><g><rect fill="#C0C0C0" stroke="none" x="1055" y="357" width="200" height="234" transform="matrix(1 0 0 1 -30 -278)" fill-opacity="0.2"/></g><g><rect fill="#ffffff" stroke="none" x="1048" y="351" width="200" height="233" transform="matrix(1 0 0 1 -30 -278)"/></g><g><path fill="none" stroke="#000000" paint-order="fill stroke markers" d=" M 1018 73 L 1218 73 L 1218 306 L 1018 306 L 1018 73 Z Z" stroke-miterlimit="10" stroke-dasharray=""/></g><g><rect fill="#ffffff" stroke="none" x="1048" y="336" width="80" height="15" transform="matrix(1 0 0 1 -30 -278)"/></g><g><path fill="none" stroke="#000000" paint-order="fill stroke markers" d=" M 1018 58 L 1098 58 L 1098 73 L 1018 73 L 1018 58 Z Z" stroke-miterlimit="10" stroke-dasharray=""/></g><g><rect fill="#ffffff" stroke="none" x="1048" y="350" width="200" height="234" transform="matrix(1 0 0 1 -30 -278)"/></g><g><path fill="none" stroke="#000000" paint-order="fill stroke markers" d=" M 1018 72 L 1218 72 L 1218 306 L 1018 306 L 1018 72 Z Z" stroke-miterlimit="10" stroke-dasharray=""/></g><g><g><path fill="none" stroke="none"/><text fill="#000000" stroke="none" font-family="Arial" font-size="13px" font-style="normal" font-weight="bold" text-decoration="undefined" x="1148.5" y="364.5" text-anchor="middle" dominant-baseline="central" transform="matrix(1 0 0 1 -30 -278)">antlrworks</text></g></g><g><rect fill="#C0C0C0" stroke="none" x="1119" y="511" width="111.16259765625" height="45" transform="matrix(1 0 0 1 -30 -278)" fill-opacity="0.2"/></g><g><rect fill="#ffffff" stroke="none" x="1112" y="504" width="111.16259765625" height="45" transform="matrix(1 0 0 1 -30 -278)"/></g><g><path fill="none" stroke="#000000" paint-order="fill stroke markers" d=" M 1082 226 L 1193.16259765625 226 L 1193.16259765625 271 L 1082 271 L 1082 226 Z Z" stroke-miterlimit="10" stroke-dasharray=""/></g><g><path fill="none" stroke="#000000" paint-order="fill stroke markers" d=" M 1082 251 L 1194.16259765625 251" stroke-miterlimit="10" stroke-dasharray=""/></g><g><path fill="none" stroke="#000000" paint-order="fill stroke markers" d=" M 1082 261 L 1194.16259765625 261" stroke-miterlimit="10" stroke-dasharray=""/></g><g><g><path fill="none" stroke="none"/><text fill="#000000" stroke="none" font-family="Arial" font-size="13px" font-style="normal" font-weight="bold" text-decoration="undefined" x="1168.081298828125" y="517.5" text-anchor="middle" dominant-baseline="central" transform="matrix(1 0 0 1 -30 -278)">While_astParser</text></g></g><g><path fill="none" stroke="#000000" paint-order="fill stroke markers" d=" M 915 199 L 1017 191" stroke-miterlimit="10" stroke-dasharray="3"/></g><g><path fill="none" stroke="#000000" paint-order="fill stroke markers" d=" M 1007.1975868487375 195.99126200594168 L 1017 191 L 1006.53929197767 187.59800239983025" stroke-miterlimit="10" stroke-dasharray=""/></g><g><rect fill="#ffffff" stroke="none" x="973" y="452" width="43.7099609375" height="13" transform="matrix(1 0 0 1 -30 -278)"/></g><g><g><path fill="none" stroke="none"/><text fill="#000000" stroke="none" font-family="Arial" font-size="13px" font-style="normal" font-weight="normal" text-decoration="undefined" x="994.85498046875" y="458.5" text-anchor="middle" dominant-baseline="central" transform="matrix(1 0 0 1 -30 -278)">+import</text></g></g><g><path fill="none" stroke="#000000" paint-order="fill stroke markers" d=" M 724 377 L 725 313" stroke-miterlimit="10" stroke-dasharray=""/></g><g><path fill="#000000" stroke="none" paint-order="stroke fill markers" d=" M 729.050231578504 323.2272002112254 L 725 313 L 720.6322235926261 323.09566883644607 L 724.6562919539881 334.9973149447633"/></g><g><path fill="none" stroke="#000000" paint-order="fill stroke markers" d=" M 729.050231578504 323.2272002112254 L 725 313 L 720.6322235926261 323.09566883644607 L 724.6562919539881 334.9973149447633 L 729.050231578504 323.2272002112254" stroke-miterlimit="10" stroke-dasharray=""/></g><g><rect fill="#ffffff" stroke="none" x="763" y="627" width="7.22998046875" height="13" transform="matrix(1 0 0 1 -30 -278)"/></g><g><g><path fill="none" stroke="none"/><text fill="#000000" stroke="none" font-family="Arial" font-size="13px" font-style="normal" font-weight="normal" text-decoration="undefined" x="766.614990234375" y="633.5" text-anchor="middle" dominant-baseline="central" transform="matrix(1 0 0 1 -30 -278)">1</text></g></g><g><rect fill="#C0C0C0" stroke="none" x="375" y="343" width="93.052734375" height="45" transform="matrix(1 0 0 1 -30 -278)" fill-opacity="0.2"/></g><g><rect fill="#ffffff" stroke="none" x="368" y="336" width="93.052734375" height="45" transform="matrix(1 0 0 1 -30 -278)"/></g><g><path fill="none" stroke="#000000" paint-order="fill stroke markers" d=" M 338 58 L 431.052734375 58 L 431.052734375 103 L 338 103 L 338 58 Z Z" stroke-miterlimit="10" stroke-dasharray=""/></g><g><path fill="none" stroke="#000000" paint-order="fill stroke markers" d=" M 338 83 L 432.052734375 83" stroke-miterlimit="10" stroke-dasharray=""/></g><g><path fill="none" stroke="#000000" paint-order="fill stroke markers" d=" M 338 93 L 432.052734375 93" stroke-miterlimit="10" stroke-dasharray=""/></g><g><g><path fill="none" stroke="none"/><text fill="#000000" stroke="none" font-family="Arial" font-size="13px" font-style="normal" font-weight="bold" text-decoration="undefined" x="415.0263671875" y="349.5" text-anchor="middle" dominant-baseline="central" transform="matrix(1 0 0 1 -30 -278)">WhileContext</text></g></g><g><path fill="none" stroke="#000000" paint-order="fill stroke markers" d=" M 384 104 L 383 185" stroke-miterlimit="10" stroke-dasharray=""/></g><g><path fill="#FFFFFF" stroke="none" paint-order="stroke fill markers" d=" M 378.9162585671644 174.78613413492513 L 383 185 L 387.33465255555376 174.89006492490523 L 383.27158424219675 163.00167638206517"/></g><g><path fill="none" stroke="#000000" paint-order="fill stroke markers" d=" M 378.9162585671644 174.78613413492513 L 383 185 L 387.33465255555376 174.89006492490523 L 383.27158424219675 163.00167638206517 L 378.9162585671644 174.78613413492513" stroke-miterlimit="10" stroke-dasharray=""/></g><g><rect fill="#ffffff" stroke="none" x="391" y="397" width="21.68359375" height="13" transform="matrix(1 0 0 1 -30 -278)"/></g><g><g><path fill="none" stroke="none"/><text fill="#000000" stroke="none" font-family="Arial" font-size="13px" font-style="normal" font-weight="normal" text-decoration="undefined" x="401.841796875" y="403.5" text-anchor="middle" dominant-baseline="central" transform="matrix(1 0 0 1 -30 -278)">*</text></g></g><g><rect fill="#ffffff" stroke="none" x="397" y="435" width="7.22998046875" height="13" transform="matrix(1 0 0 1 -30 -278)"/></g><g><g><path fill="none" stroke="none"/><text fill="#000000" stroke="none" font-family="Arial" font-size="13px" font-style="normal" font-weight="normal" text-decoration="undefined" x="400.614990234375" y="441.5" text-anchor="middle" dominant-baseline="central" transform="matrix(1 0 0 1 -30 -278)">1</text></g></g><g><rect fill="#C0C0C0" stroke="none" x="1119" y="439" width="105.37353515625" height="45" transform="matrix(1 0 0 1 -30 -278)" fill-opacity="0.2"/></g><g><rect fill="#ffffff" stroke="none" x="1112" y="432" width="105.37353515625" height="45" transform="matrix(1 0 0 1 -30 -278)"/></g><g><path fill="none" stroke="#000000" paint-order="fill stroke markers" d=" M 1082 154 L 1187.37353515625 154 L 1187.37353515625 199 L 1082 199 L 1082 154 Z Z" stroke-miterlimit="10" stroke-dasharray=""/></g><g><path fill="none" stroke="#000000" paint-order="fill stroke markers" d=" M 1082 179 L 1188.37353515625 179" stroke-miterlimit="10" stroke-dasharray=""/></g><g><path fill="none" stroke="#000000" paint-order="fill stroke markers" d=" M 1082 189 L 1188.37353515625 189" stroke-miterlimit="10" stroke-dasharray=""/></g><g><g><path fill="none" stroke="none"/><text fill="#000000" stroke="none" font-family="Arial" font-size="13px" font-style="normal" font-weight="bold" text-decoration="undefined" x="1165.186767578125" y="445.5" text-anchor="middle" dominant-baseline="central" transform="matrix(1 0 0 1 -30 -278)">While_astLexer</text></g></g><g><path fill="none" stroke="#000000" paint-order="fill stroke markers" d=" M 1081 188 L 884 233" stroke-miterlimit="10" stroke-dasharray=""/></g><g><path fill="#000000" stroke="none" paint-order="stroke fill markers" d=" M 892.9700627551931 226.6330561359552 L 884 233 L 894.844901383566 234.84068302016578 L 905.4475626328664 228.10081056609653"/></g><g><path fill="none" stroke="#000000" paint-order="fill stroke markers" d=" M 892.9700627551931 226.6330561359552 L 884 233 L 894.844901383566 234.84068302016578 L 905.4475626328664 228.10081056609653 L 892.9700627551931 226.6330561359552" stroke-miterlimit="10" stroke-dasharray=""/></g><g><rect fill="#ffffff" stroke="none" x="1084" y="452" width="7.22998046875" height="13" transform="matrix(1 0 0 1 -30 -278)"/></g><g><g><path fill="none" stroke="none"/><text fill="#000000" stroke="none" font-family="Arial" font-size="13px" font-style="normal" font-weight="normal" text-decoration="undefined" x="1087.614990234375" y="458.5" text-anchor="middle" dominant-baseline="central" transform="matrix(1 0 0 1 -30 -278)">1</text></g></g><g><path fill="none" stroke="#000000" paint-order="fill stroke markers" d=" M 1081 251 L 884 261" stroke-miterlimit="10" stroke-dasharray=""/></g><g><path fill="#000000" stroke="none" paint-order="stroke fill markers" d=" M 893.9362005762847 256.2806866910704 L 884 261 L 894.3630132500086 264.6888963634325 L 905.9717107176474 259.8846847351448"/></g><g><path fill="none" stroke="#000000" paint-order="fill stroke markers" d=" M 893.9362005762847 256.2806866910704 L 884 261 L 894.3630132500086 264.6888963634325 L 905.9717107176474 259.8846847351448 L 893.9362005762847 256.2806866910704" stroke-miterlimit="10" stroke-dasharray=""/></g><g><rect fill="#ffffff" stroke="none" x="1085" y="511" width="7.22998046875" height="13" transform="matrix(1 0 0 1 -30 -278)"/></g><g><g><path fill="none" stroke="none"/><text fill="#000000" stroke="none" font-family="Arial" font-size="13px" font-style="normal" font-weight="normal" text-decoration="undefined" x="1088.614990234375" y="517.5" text-anchor="middle" dominant-baseline="central" transform="matrix(1 0 0 1 -30 -278)">1</text></g></g></g></svg>